<?xml version="1.0" encoding="UTF-8" standalone="no"?>
<svg
   viewBox="0 0 320 320"
   fill="none"
   version="1.1"
   id="svg2"
   sodipodi:docname="Plakar_Logo_Simple_Dark.svg"
   width="320"
   height="320"
   inkscape:version="1.4 (e7c3feb1, 2024-10-09)"
   xmlns:inkscape="http://www.inkscape.org/namespaces/inkscape"
   xmlns:sodipodi="http://sodipodi.sourceforge.net/DTD/sodipodi-0.dtd"
   xmlns="http://www.w3.org/2000/svg"
   xmlns:svg="http://www.w3.org/2000/svg">
  <defs
     id="defs2" />
  <sodipodi:namedview
     id="namedview2"
     pagecolor="#ffffff"
     bordercolor="#000000"
     borderopacity="0.25"
     inkscape:showpageshadow="2"
     inkscape:pageopacity="0.0"
     inkscape:pagecheckerboard="0"
     inkscape:deskcolor="#d1d1d1"
     inkscape:zoom="0.83149606"
     inkscape:cx="214.6733"
     inkscape:cy="242.33428"
     inkscape:window-width="1200"
     inkscape:window-height="1186"
     inkscape:window-x="2240"
     inkscape:window-y="25"
     inkscape:window-maximized="0"
     inkscape:current-layer="svg2" />
  <rect
     x="18.01119"
     y="17.417404"
     width="286.97601"
     height="286.97601"
     rx="143.48801"
     fill="#000000"
     id="rect1" />
  <path
     d="m 226.41109,136.4063 c -2.844,-9.076 -7.505,-17.333 -13.549,-24.355 4.291,-3.188 7.07,-8.321 7.07,-14.100997 0,-9.6785 -7.79,-17.519 -17.39,-17.519 -7.869,0 -14.512,5.2629 -16.657,12.4787 -7.676,-3.0012 -16.015,-4.6454 -24.739,-4.6454 -7.861,0 -15.416,1.3426 -22.451,3.7981 -2.402,-6.7778 -8.831,-11.6314 -16.386,-11.6314 -9.607,0 -17.39,7.8476 -17.39,17.519 0,5.090997 2.152,9.670997 5.595,12.873997 -6.572,7.273 -11.617999,15.968 -14.632999,25.574 v 0.015 c -25.7723,2.987 -45.7858,25.036 -45.7858,51.795 0,28.799 23.178,52.148 51.765799,52.148 12.786,0 24.482,-4.681 33.513,-12.421 l 42.129,0.086 9.387,-0.057 c 9.03,7.725 20.712,12.392 33.484,12.392 28.588,0 51.766,-23.349 51.766,-52.148 0,-26.745 -19.985,-48.787 -45.729,-51.802 z m -65.279,-36.969797 c 4.818,0 9.493,0.631797 13.962,1.881097 l -8.581,33.8537 c -0.257,1.019 -1.083,1.716 -2.038,1.701 -1.861,-0.029 -4.904,-0.021 -6.764,0.007 -0.955,0.015 -1.782,-0.682 -2.046,-1.701 l -8.524,-33.8391 c 4.49,-1.2637 9.166,-1.902697 13.984,-1.902697 z m 9.073,61.531797 -5.602,4.997 c -1.989,1.774 -4.989,1.774 -6.978,0 l -5.602,-4.997 c -3.628,-3.238 -1.354,-9.269 3.492,-9.269 h 11.205 c 4.846,0 7.113,6.038 3.492,9.269 z m -32.401,-27.485 c 3.949,0 7.149,4.366 7.149,9.758 0,5.392 -3.2,9.757 -7.149,9.757 -3.948,0 -7.149,-4.365 -7.149,-9.757 0,-5.392 3.201,-9.758 7.149,-9.758 z m 50.269,63.384 c 2.409,2.463 2.388,6.426 -0.057,8.853 -1.212,1.206 -2.787,1.802 -4.369,1.802 -1.582,0 -3.207,-0.624 -4.426,-1.866 -3.286,-3.353 -5.538,-8.027 -6.529,-13.326 -4.112,0.876 -8.31,1.321 -12.508,1.321 -3.592,0 -7.184,-0.323 -10.72,-0.969 -1.019,5.148 -3.25,9.692 -6.457,12.974 -1.219,1.242 -2.822,1.866 -4.426,1.866 -1.604,0 -3.157,-0.603 -4.369,-1.802 -2.445,-2.427 -2.473,-6.397 -0.057,-8.853 1.696,-1.73 3.507,-5.442 3.507,-10.669 0,-4.423 -1.433,-8.666 -3.643,-10.798 -2.48,-2.391 -2.558,-6.355 -0.185,-8.853 2.374,-2.499 6.315,-2.578 8.788,-0.187 3.407,3.288 5.809,8.128 6.864,13.563 7.405,1.709 15.209,1.615 22.572,-0.287 l 0.763,-0.194 c 1.104,-5.242 3.456,-9.887 6.763,-13.082 2.481,-2.391 6.415,-2.312 8.788,0.187 2.374,2.498 2.295,6.462 -0.185,8.853 -2.216,2.139 -3.642,6.375 -3.642,10.798 0,5.227 1.81,8.939 3.514,10.669 z m -3.642,-43.876 c -3.949,0 -7.149,-4.365 -7.149,-9.757 0,-5.393 3.2,-9.758 7.149,-9.758 3.949,0 7.149,4.365 7.149,9.758 0,5.392 -3.2,9.757 -7.149,9.757 z"
     fill="#ffffff"
     id="path1" />
</svg>
